<?xml version="1.0" encoding="UTF-8"?>
<svg id="Layer_1" data-name="Layer 1" xmlns="http://www.w3.org/2000/svg" xmlns:xlink="http://www.w3.org/1999/xlink" viewBox="0 0 725.67 515.91">
  <defs>
    <style>
      .cls-1 {
        fill: none;
      }

      .cls-2 {
        fill: #231f20;
      }

      .cls-3 {
        fill: #fff;
      }

      .cls-4 {
        fill: #f5f5f5;
      }

      .cls-5 {
        clip-path: url(#clippath);
      }
    </style>
    <clipPath id="clippath">
      <rect class="cls-1" width="725.67" height="515.91"/>
    </clipPath>
  </defs>
  <g class="cls-5">
    <rect class="cls-3" y="0" width="725.67" height="515.91"/>
    <g>
      <path class="cls-2" d="M52.91,420.03c-1.12,0-2.1-1.2-2.1-2.83s.95-2.82,2.1-2.82c.37,0,.78.13,1.15.45.03-.06.1-.22.12-.29.04-.06.08-.16.24-.16.25,0,.25.2.25.34v1.29c0,.18,0,.34-.29.34-.18,0-.26-.05-.28-.25-.12-.82-.65-1.2-1.13-1.2-.81,0-1.58.96-1.58,2.3s.76,2.31,1.58,2.31c.15,0,1.05-.06,1.12-1.17.02-.15.16-.2.28-.2.11,0,.29,0,.29.28,0,.78-.72,1.61-1.76,1.61Z"/>
      <path class="cls-2" d="M57.45,419.98c-.95,0-1.77-.85-1.77-1.98s.81-1.99,1.77-1.99,1.77.88,1.77,1.99-.82,1.98-1.77,1.98ZM57.45,416.52c-.62,0-1.19.59-1.19,1.42s.55,1.52,1.19,1.52,1.19-.67,1.19-1.52-.57-1.42-1.19-1.42Z"/>
      <path class="cls-2" d="M63.23,419.92h-2.75c-.12,0-.36,0-.36-.26s.23-.26.36-.26h1.09v-4.4h-1.09c-.12,0-.36,0-.36-.26s.23-.26.36-.26h1.31c.3,0,.36.09.36.37v4.55h1.08c.12,0,.36,0,.36.26s-.23.26-.36.26Z"/>
      <path class="cls-2" d="M67.85,419.92h-2.75c-.12,0-.36,0-.36-.26s.23-.26.36-.26h1.09v-4.4h-1.09c-.12,0-.36,0-.36-.26s.23-.26.36-.26h1.31c.3,0,.36.09.36.37v4.55h1.08c.12,0,.36,0,.36.26s-.23.26-.36.26Z"/>
      <path class="cls-2" d="M72.86,419.92c-.34,0-.78-.02-.96-.31-.46.32-1.01.37-1.3.37-.83,0-1.39-.53-1.39-1.17s.57-.92,1.01-1.08c.55-.18,1.07-.21,1.59-.23,0-.26,0-.51-.32-.76-.29-.22-.6-.22-.8-.22-.11,0-.22,0-.33,0-.19.02-.2.03-.2.07,0,.37-.3.39-.36.39-.2,0-.36-.13-.36-.37,0-.61.86-.61,1.24-.61,1.2,0,1.71.71,1.71,1.39v1.94c.12.05.3.07.53.07.12,0,.36,0,.36.26s-.21.26-.43.26ZM71.82,417.98c-1.08,0-2.03.3-2.03.83,0,.37.38.65.91.65.03,0,.44,0,.76-.15.37-.17.37-.36.37-.56v-.77Z"/>
      <path class="cls-2" d="M75.95,419.98c-.5,0-.83-.26-1.04-.5,0,.26,0,.44-.29.44s-.29-.21-.29-.36v-4.55h-.37c-.12,0-.36,0-.36-.26s.23-.26.36-.26h.59c.3,0,.36.09.36.37v1.66c.08-.09.49-.48,1.14-.48.92,0,1.67.87,1.67,1.97s-.83,1.98-1.77,1.98ZM75.99,416.55c-.58,0-1.08.5-1.08,1v.7c0,.44.33,1.2,1,1.2.63,0,1.24-.6,1.24-1.46,0-.8-.52-1.45-1.16-1.45Z"/>
      <path class="cls-2" d="M80.51,419.98c-.95,0-1.77-.85-1.77-1.98s.81-1.99,1.77-1.99,1.77.88,1.77,1.99-.82,1.98-1.77,1.98ZM80.51,416.52c-.62,0-1.19.59-1.19,1.42s.55,1.52,1.19,1.52,1.19-.67,1.19-1.52-.57-1.42-1.19-1.42Z"/>
      <path class="cls-2" d="M86.64,416.91c-.06,0-.31-.03-.34-.35-.04,0-.1,0-.14,0-.76,0-1.5.63-1.5,1.69v1.17h.93c.12,0,.36,0,.36.26s-.23.26-.36.26h-2.19c-.12,0-.36,0-.36-.26s.23-.26.36-.26h.68v-2.8h-.68c-.12,0-.36,0-.36-.26s.23-.26.36-.26h.9c.3,0,.36.09.36.36v.35c.41-.5.92-.77,1.51-.77.45,0,.82.14.82.53,0,.2-.14.35-.35.35Z"/>
      <path class="cls-2" d="M91.49,419.92c-.34,0-.78-.02-.96-.31-.46.32-1.01.37-1.3.37-.83,0-1.39-.53-1.39-1.17s.57-.92,1.01-1.08c.55-.18,1.07-.21,1.59-.23,0-.26,0-.51-.32-.76-.29-.22-.6-.22-.8-.22-.11,0-.22,0-.33,0-.19.02-.2.03-.2.07,0,.37-.3.39-.36.39-.2,0-.36-.13-.36-.37,0-.61.86-.61,1.24-.61,1.2,0,1.71.71,1.71,1.39v1.94c.12.05.3.07.53.07.12,0,.36,0,.36.26s-.21.26-.43.26ZM90.45,417.98c-1.08,0-2.03.3-2.03.83,0,.37.38.65.91.65.03,0,.44,0,.76-.15.37-.17.37-.36.37-.56v-.77Z"/>
      <path class="cls-2" d="M94.43,419.98c-.64,0-1.21-.3-1.21-1.13v-2.24h-.77c-.12,0-.36,0-.36-.26s.24-.26.36-.26h.76v-.73c0-.16,0-.37.29-.37s.29.21.29.37v.73h1.44c.12,0,.36,0,.36.26s-.23.26-.36.26h-1.44v2.2c0,.21,0,.66.69.66.21,0,.71-.09.72-.62,0-.19,0-.38.29-.38s.29.2.29.37c0,.91-.88,1.15-1.36,1.15Z"/>
      <path class="cls-2" d="M98.73,419.98c-.95,0-1.77-.85-1.77-1.98s.81-1.99,1.77-1.99,1.77.88,1.77,1.99-.82,1.98-1.77,1.98ZM98.73,416.52c-.62,0-1.19.59-1.19,1.42s.55,1.52,1.19,1.52,1.19-.67,1.19-1.52-.57-1.42-1.19-1.42Z"/>
      <path class="cls-2" d="M104.87,416.91c-.06,0-.31-.03-.34-.35-.04,0-.1,0-.14,0-.76,0-1.5.63-1.5,1.69v1.17h.93c.12,0,.36,0,.36.26s-.23.26-.36.26h-2.19c-.12,0-.36,0-.36-.26s.23-.26.36-.26h.68v-2.8h-.68c-.12,0-.36,0-.36-.26s.23-.26.36-.26h.9c.3,0,.36.09.36.36v.35c.41-.5.92-.77,1.51-.77.45,0,.82.14.82.53,0,.2-.14.35-.35.35Z"/>
    </g>
    <g>
      <path class="cls-2" d="M54.42,435.6h-.85c-.12,0-.36,0-.36-.26s.21-.26.49-.26l-.23-1h-1.44l-.23,1c.28,0,.49,0,.49.26s-.24.26-.36.26h-.85c-.12,0-.36,0-.36-.26s.2-.26.5-.26l1.1-4.72c.06-.29.17-.32.44-.32.21,0,.38,0,.45.32l1.09,4.72c.29,0,.5,0,.5.26s-.24.26-.36.26ZM52.89,431.53s-.12-.55-.15-.76h0c-.04.43-.53,2.53-.6,2.79h1.21l-.45-2.04Z"/>
      <path class="cls-2" d="M59.11,435.6h-.59c-.15,0-.37,0-.37-.32-.18.15-.52.37-1.06.37-.68,0-1.22-.25-1.22-1.07v-2.3h-.36c-.12,0-.36,0-.36-.26s.23-.26.36-.26h.59c.3,0,.36.09.36.36v2.41c0,.28,0,.6.7.6.4,0,1.01-.2,1.01-.92v-1.93h-.37c-.12,0-.36,0-.36-.26s.23-.26.36-.26h.59c.3,0,.36.09.36.36v2.95h.36c.12,0,.36,0,.36.26s-.23.26-.36.26Z"/>
      <path class="cls-2" d="M62.21,435.65c-.64,0-1.21-.3-1.21-1.13v-2.24h-.77c-.12,0-.36,0-.36-.26s.24-.26.36-.26h.76v-.73c0-.16,0-.37.29-.37s.29.21.29.37v.73h1.44c.12,0,.36,0,.36.26s-.23.26-.36.26h-1.44v2.2c0,.21,0,.66.69.66.21,0,.71-.09.72-.62,0-.19,0-.38.29-.38s.29.2.29.37c0,.91-.88,1.15-1.36,1.15Z"/>
      <path class="cls-2" d="M68.43,435.6h-1.31c-.12,0-.36,0-.36-.26s.23-.26.36-.26h.37v-2.06c0-.51-.11-.8-.62-.8-.48,0-1.08.38-1.08,1.25v1.61h.36c.12,0,.36,0,.36.26s-.23.26-.36.26h-1.31c-.12,0-.36,0-.36-.26s.23-.26.36-.26h.36v-4.4h-.36c-.12,0-.36,0-.36-.26s.23-.26.36-.26h.59c.3,0,.36.09.36.37v1.69c.15-.17.54-.51,1.15-.51.73,0,1.14.41,1.14,1.28v2.09h.36c.12,0,.36,0,.36.26s-.23.26-.36.26Z"/>
      <path class="cls-2" d="M71.24,435.65c-.95,0-1.77-.85-1.77-1.98s.81-1.99,1.77-1.99,1.77.88,1.77,1.99-.82,1.98-1.77,1.98ZM71.24,432.2c-.62,0-1.19.59-1.19,1.42s.55,1.52,1.19,1.52,1.19-.67,1.19-1.52-.57-1.42-1.19-1.42Z"/>
      <path class="cls-2" d="M77.38,432.58c-.06,0-.31-.03-.34-.35-.04,0-.1,0-.14,0-.76,0-1.5.63-1.5,1.69v1.17h.93c.12,0,.36,0,.36.26s-.23.26-.36.26h-2.19c-.12,0-.36,0-.36-.26s.23-.26.36-.26h.68v-2.8h-.68c-.12,0-.36,0-.36-.26s.23-.26.36-.26h.9c.3,0,.36.09.36.36v.35c.41-.5.92-.77,1.51-.77.45,0,.82.14.82.53,0,.2-.14.35-.35.35Z"/>
    </g>
    <g>
      <path class="cls-2" d="M52.99,449.07h-1.1v1.69h.24c.12,0,.36,0,.36.26s-.24.26-.36.26h-1.06c-.12,0-.37,0-.37-.26s.24-.26.37-.26h.24v-4.4h-.24c-.12,0-.37,0-.37-.26s.24-.26.37-.26h1.92c1.01,0,1.66.79,1.66,1.62s-.62,1.61-1.66,1.61ZM52.83,446.36h-.94v2.2h.94c.84,0,1.24-.6,1.24-1.1,0-.47-.38-1.09-1.24-1.09Z"/>
      <path class="cls-2" d="M59.16,448.26c-.06,0-.31-.03-.34-.35-.04,0-.1,0-.14,0-.76,0-1.5.63-1.5,1.69v1.17h.93c.12,0,.36,0,.36.26s-.23.26-.36.26h-2.19c-.12,0-.36,0-.36-.26s.23-.26.36-.26h.68v-2.8h-.68c-.12,0-.36,0-.36-.26s.23-.26.36-.26h.9c.3,0,.36.09.36.36v.35c.41-.5.92-.77,1.51-.77.45,0,.82.14.82.53,0,.2-.14.35-.35.35Z"/>
      <path class="cls-2" d="M62.13,451.33c-.95,0-1.77-.85-1.77-1.98s.81-1.99,1.77-1.99,1.77.88,1.77,1.99-.82,1.98-1.77,1.98ZM62.13,447.88c-.62,0-1.19.59-1.19,1.42s.55,1.52,1.19,1.52,1.19-.67,1.19-1.52-.57-1.42-1.19-1.42Z"/>
      <path class="cls-2" d="M68.67,451.28h-.59c-.36,0-.36-.12-.36-.49-.17.2-.55.54-1.13.54-.92,0-1.68-.87-1.68-1.97s.82-1.97,1.76-1.97c.54,0,.91.3,1.05.45v-1.48h-.37c-.12,0-.36,0-.36-.26s.23-.26.36-.26h.59c.3,0,.36.09.36.37v4.55h.36c.12,0,.36,0,.36.26s-.23.26-.36.26ZM67.72,448.89c0-.46-.42-.99-1-.99-.63,0-1.24.6-1.24,1.46,0,.8.52,1.45,1.16,1.45s1.08-.73,1.08-1.23v-.69Z"/>
      <path class="cls-2" d="M73.33,451.28h-.59c-.15,0-.36,0-.36-.32-.18.15-.52.37-1.06.37-.68,0-1.22-.25-1.22-1.07v-2.3h-.37c-.12,0-.36,0-.36-.26s.23-.26.36-.26h.59c.3,0,.36.09.36.36v2.41c0,.28,0,.6.7.6.4,0,1.01-.2,1.01-.92v-1.93h-.37c-.12,0-.36,0-.36-.26s.23-.26.36-.26h.59c.3,0,.36.09.36.36v2.95h.36c.12,0,.36,0,.36.26s-.23.26-.36.26Z"/>
      <path class="cls-2" d="M76.35,451.33c-1.07,0-1.89-.89-1.89-1.98,0-.75.49-1.99,2.01-1.99.39,0,1.29,0,1.29.61,0,.24-.17.37-.37.37-.05,0-.33,0-.36-.37,0-.04,0-.05-.07-.07-.08,0-.27-.03-.51-.03-1.17,0-1.42,1.02-1.42,1.48,0,.83.64,1.46,1.4,1.46.21,0,.65-.05.85-.54.04-.12.08-.2.28-.2.07,0,.29,0,.29.23,0,.14-.31,1.02-1.5,1.02Z"/>
      <path class="cls-2" d="M81.09,451.33c-.64,0-1.21-.3-1.21-1.13v-2.24h-.77c-.12,0-.36,0-.36-.26s.24-.26.36-.26h.76v-.73c0-.16,0-.37.29-.37s.29.21.29.37v.73h1.44c.12,0,.36,0,.36.26s-.23.26-.36.26h-1.44v2.2c0,.21,0,.66.69.66.21,0,.71-.09.72-.62,0-.19,0-.38.29-.38s.29.2.29.37c0,.91-.88,1.15-1.36,1.15Z"/>
      <path class="cls-2" d="M86.52,451.28h-2.47c-.12,0-.36,0-.36-.26s.24-.26.36-.26h1.01v-2.8h-.95c-.12,0-.36,0-.36-.26s.23-.26.36-.26h1.17c.3,0,.36.09.36.36v2.95h.88c.12,0,.36,0,.36.26s-.23.26-.36.26ZM85.24,446.73c-.22,0-.4-.18-.4-.4s.18-.4.4-.4.4.18.4.4-.18.4-.4.4Z"/>
      <path class="cls-2" d="M89.59,451.33c-.95,0-1.77-.85-1.77-1.98s.81-1.99,1.77-1.99,1.77.88,1.77,1.99-.82,1.98-1.77,1.98ZM89.59,447.88c-.62,0-1.19.59-1.19,1.42s.55,1.52,1.19,1.52,1.19-.67,1.19-1.52-.57-1.42-1.19-1.42Z"/>
      <path class="cls-2" d="M96.05,451.28h-1.31c-.12,0-.36,0-.36-.26s.23-.26.36-.26h.37v-2.06c0-.51-.11-.8-.62-.8-.48,0-1.08.38-1.08,1.25v1.61h.36c.12,0,.36,0,.36.26s-.23.26-.36.26h-1.31c-.12,0-.36,0-.36-.26s.23-.26.36-.26h.36v-2.8h-.36c-.12,0-.36,0-.36-.26s.23-.26.36-.26h.59c.36,0,.36.12.36.45.15-.17.54-.51,1.15-.51.73,0,1.14.41,1.14,1.28v2.09h.36c.12,0,.36,0,.36.26s-.23.26-.36.26Z"/>
      <path class="cls-2" d="M103.35,451.28h-1.77c-.12,0-.36,0-.36-.26s.23-.26.36-.26h.18v-4.4h-.18c-.12,0-.36,0-.36-.26s.23-.26.36-.26h1.76c1.18,0,1.92,1.34,1.92,2.77s-.76,2.67-1.91,2.67ZM103.18,446.36h-.84v4.4h.85c.97,0,1.49-1.09,1.49-2.16,0-1.01-.47-2.24-1.5-2.24Z"/>
      <path class="cls-2" d="M109.78,451.28c-.34,0-.78-.02-.96-.31-.46.32-1.01.37-1.3.37-.83,0-1.39-.53-1.39-1.17s.57-.92,1.01-1.08c.55-.18,1.07-.21,1.59-.23,0-.26,0-.51-.32-.76-.29-.22-.6-.22-.8-.22-.11,0-.22,0-.33,0-.19.02-.2.03-.2.07,0,.37-.3.39-.36.39-.2,0-.36-.13-.36-.37,0-.61.86-.61,1.24-.61,1.2,0,1.71.71,1.71,1.39v1.94c.12.05.3.07.53.07.12,0,.36,0,.36.26s-.21.26-.43.26ZM108.74,449.34c-1.08,0-2.03.3-2.03.83,0,.37.38.65.91.65.03,0,.44,0,.76-.15.37-.17.37-.36.37-.56v-.77Z"/>
      <path class="cls-2" d="M112.71,451.33c-.64,0-1.21-.3-1.21-1.13v-2.24h-.77c-.12,0-.36,0-.36-.26s.24-.26.36-.26h.76v-.73c0-.16,0-.37.29-.37s.29.21.29.37v.73h1.44c.12,0,.36,0,.36.26s-.23.26-.36.26h-1.44v2.2c0,.21,0,.66.69.66.21,0,.71-.09.72-.62,0-.19,0-.38.29-.38s.29.2.29.37c0,.91-.88,1.15-1.36,1.15Z"/>
      <path class="cls-2" d="M117.22,451.33c-1.09,0-1.99-.87-1.99-1.99s.83-1.97,1.86-1.97c1.11,0,1.7.84,1.7,1.88,0,.33-.17.33-.36.33h-2.61c.1.68.69,1.25,1.42,1.25.17,0,.75-.04.97-.56.05-.13.11-.2.28-.2.28,0,.29.2.29.25,0,.23-.42,1.02-1.57,1.02ZM117.09,447.88c-.56,0-1.14.45-1.25,1.2h2.37c-.04-.44-.22-1.2-1.11-1.2Z"/>
    </g>
    <g>
      <path class="cls-2" d="M54.5,400.12c-.29,0-.29-.2-.29-.36v-.44h-1.18v4.4h.43c.12,0,.36,0,.36.26s-.23.26-.36.26h-1.43c-.12,0-.36,0-.36-.26s.23-.26.36-.26h.43v-4.4h-1.19v.44c0,.17,0,.36-.29.36s-.28-.2-.28-.36v-.59c0-.29.07-.37.36-.37h3.39c.3,0,.36.09.36.37v.59c0,.17,0,.36-.29.36Z"/>
      <path class="cls-2" d="M58.49,404.24h-2.47c-.12,0-.36,0-.36-.26s.24-.26.36-.26h1.01v-2.8h-.95c-.12,0-.36,0-.36-.26s.23-.26.36-.26h1.17c.3,0,.36.09.36.36v2.95h.88c.12,0,.36,0,.36.26s-.23.26-.36.26ZM57.21,399.7c-.22,0-.4-.18-.4-.4s.18-.4.4-.4.4.18.4.4-.18.4-.4.4Z"/>
      <path class="cls-2" d="M61.61,404.3c-.64,0-1.21-.3-1.21-1.13v-2.24h-.77c-.12,0-.36,0-.36-.26s.24-.26.36-.26h.76v-.73c0-.16,0-.37.29-.37s.29.21.29.37v.73h1.44c.12,0,.36,0,.36.26s-.23.26-.36.26h-1.44v2.2c0,.21,0,.66.69.66.21,0,.71-.09.72-.62,0-.19,0-.38.29-.38s.29.2.29.37c0,.91-.88,1.15-1.36,1.15Z"/>
      <path class="cls-2" d="M67.22,404.24h-2.75c-.12,0-.36,0-.36-.26s.23-.26.36-.26h1.09v-4.4h-1.09c-.12,0-.36,0-.36-.26s.23-.26.36-.26h1.31c.3,0,.36.09.36.37v4.55h1.08c.12,0,.36,0,.36.26s-.23.26-.36.26Z"/>
      <path class="cls-2" d="M70.43,404.3c-1.09,0-1.99-.87-1.99-1.99s.83-1.97,1.86-1.97c1.11,0,1.7.84,1.7,1.88,0,.33-.17.33-.36.33h-2.61c.1.68.69,1.25,1.42,1.25.17,0,.75-.04.97-.56.05-.13.11-.2.28-.2.28,0,.29.2.29.25,0,.23-.42,1.02-1.57,1.02ZM70.3,400.85c-.56,0-1.14.45-1.25,1.2h2.37c-.04-.44-.22-1.2-1.11-1.2Z"/>
    </g>
    <g>
      <path class="cls-2" d="M146.24,415.13l-1.17,4.63c-.08.33-.25.33-.49.33-.26,0-.4,0-.49-.34l-1.17-4.63c-.32,0-.51,0-.51-.28s.23-.27.36-.27h.91c.13,0,.36,0,.36.27s-.19.28-.5.28l.86,3.46c.08.33.12.48.16.79h0c.06-.38.23-1.06.35-1.53l.68-2.72c-.31,0-.5,0-.5-.28s.23-.27.37-.27h.91c.13,0,.36,0,.36.27s-.19.28-.51.28Z"/>
      <path class="cls-2" d="M150.38,420.02h-2.62c-.13,0-.36,0-.36-.27s.22-.28.36-.28h1.08v-2.75h-1c-.13,0-.37,0-.37-.28s.23-.27.37-.27h1.26c.3,0,.36.09.36.36v2.93h.93c.13,0,.37,0,.37.28s-.23.27-.37.27ZM149.04,415.53c-.25,0-.45-.2-.45-.45s.2-.44.45-.44.44.2.44.44-.2.45-.44.45Z"/>
      <path class="cls-2" d="M153.72,420.07c-1.12,0-1.96-.91-1.96-1.98,0-.78.53-1.99,2.06-1.99.4,0,1.33,0,1.33.65,0,.26-.19.41-.4.41s-.38-.12-.39-.44c0-.08-.35-.08-.53-.08-1.2,0-1.45,1.02-1.45,1.45,0,.81.64,1.43,1.4,1.43.66,0,.83-.42.88-.53.06-.18.15-.2.29-.2.05,0,.31,0,.31.25,0,.15-.3,1.02-1.54,1.02Z"/>
      <path class="cls-2" d="M158.17,420.07c-.98,0-1.82-.85-1.82-1.98s.83-1.99,1.82-1.99,1.82.88,1.82,1.99-.84,1.98-1.82,1.98ZM158.17,416.65c-.63,0-1.21.58-1.21,1.39s.55,1.49,1.21,1.49,1.21-.67,1.21-1.49-.57-1.39-1.21-1.39Z"/>
      <path class="cls-2" d="M169.33,420.02h-.73c-.13,0-.36,0-.36-.27s.19-.28.47-.28v-4.24h0c-.11.47-.86,2.72-.89,2.78-.07.12-.2.2-.31.2-.11,0-.21-.06-.27-.13-.04-.06-.16-.4-.23-.6-.04-.12-.61-1.82-.7-2.23h0v4.24c.28,0,.47,0,.47.28s-.22.27-.36.27h-.73c-.13,0-.36,0-.36-.27s.19-.28.47-.28v-4.35c-.29,0-.47,0-.47-.28s.22-.27.36-.27h.5c.12,0,.35,0,.44.21.02.05.8,2.36.89,2.78h0c.05-.26.13-.52.24-.84l.6-1.8c.08-.23.12-.36.48-.36h.5c.13,0,.36,0,.36.27s-.19.28-.47.28v4.35c.28,0,.47,0,.47.28s-.22.27-.36.27Z"/>
      <path class="cls-2" d="M174.23,420.02c-.34,0-.76,0-.96-.29-.42.28-.97.34-1.3.34-.91,0-1.47-.58-1.47-1.19,0-.85,1.09-1.3,2.67-1.33,0-.63-.46-.91-1.14-.91-.08,0-.2,0-.32,0-.18.02-.19.03-.19.1,0,.33-.26.41-.39.41-.21,0-.4-.14-.4-.41,0-.65.91-.65,1.29-.65,1.28,0,1.76.75,1.76,1.38v1.92c.07.03.16.07.53.07.13,0,.36,0,.36.27s-.2.28-.45.28ZM173.18,418.08c-1.29.04-2.05.37-2.05.8,0,.35.37.65.92.65.07,0,.47,0,.79-.15.35-.16.35-.35.35-.55v-.75Z"/>
      <path class="cls-2" d="M179.25,416.93c-.09,0-.29-.06-.35-.3-.12,0-.33.04-.52.15.15.25.23.51.23.77,0,.79-.65,1.43-1.47,1.43-.44,0-.77-.2-.8-.22-.04.09-.05.21-.05.25,0,0,0,.2.11.32.11.12.16.12.29.12.07.02.19.02.26.02h.62c.8,0,1.17.2,1.29.26.45.24.61.69.61,1.01,0,.76-.93,1.31-2.07,1.31s-2.07-.54-2.07-1.31c0-.1,0-.7.66-1.1-.08-.11-.2-.33-.2-.64,0-.27.08-.46.18-.61-.13-.17-.29-.46-.29-.84,0-.76.63-1.42,1.47-1.42.41,0,.72.17.86.27.41-.3.84-.31.94-.31.48,0,.65.28.65.48,0,.26-.21.36-.36.36ZM177.17,419.98c-.65,0-.73,0-.95.14-.29.18-.36.46-.36.62,0,.39.67.77,1.56.77s1.56-.38,1.56-.77c0-.76-1.01-.76-1.8-.76ZM177.15,416.67c-.46,0-.85.39-.85.9,0,.47.37.89.85.89s.85-.39.85-.9c0-.47-.37-.89-.85-.89Z"/>
      <path class="cls-2" d="M183.6,420.02h-2.62c-.13,0-.36,0-.36-.27s.22-.28.36-.28h1.08v-2.75h-1c-.13,0-.37,0-.37-.28s.23-.27.37-.27h1.26c.3,0,.36.09.36.36v2.93h.93c.13,0,.37,0,.37.28s-.23.27-.37.27ZM182.25,415.53c-.25,0-.45-.2-.45-.45s.2-.44.45-.44.44.2.44.44-.2.45-.44.45Z"/>
      <path class="cls-2" d="M186.97,420.07c-.25,0-.72-.02-1.16-.34-.11.33-.25.34-.33.34-.27,0-.27-.22-.27-.37v-.86c0-.18,0-.37.31-.37.23,0,.27.1.31.26.22.69.72.79,1.14.79.81,0,1.14-.29,1.14-.62,0-.47-.71-.59-1.15-.66-.82-.12-1.75-.28-1.75-1.09,0-.32.2-1.05,1.69-1.05.17,0,.56,0,.95.19.02-.06.05-.19.27-.19.27,0,.27.22.27.36v.61c0,.18,0,.36-.31.36-.28,0-.29-.15-.3-.3-.03-.23-.15-.5-.89-.5-.84,0-1.13.28-1.13.51,0,.35.6.45.86.49l.61.11c.28.04,1.43.23,1.43,1.16,0,.43-.28,1.17-1.69,1.17Z"/>
      <path class="cls-2" d="M191.95,420.07c-.65,0-1.25-.32-1.25-1.17v-2.17h-.78c-.13,0-.36,0-.36-.27s.22-.28.36-.28h.77v-.73c0-.18,0-.37.31-.37s.3.2.3.37v.73h1.46c.14,0,.36,0,.36.28s-.22.27-.36.27h-1.46v2.12c0,.22,0,.68.69.68.2,0,.71-.09.72-.64,0-.15,0-.34.3-.34.31,0,.31.19.31.35,0,.79-.72,1.17-1.38,1.17Z"/>
      <path class="cls-2" d="M198.03,417.07c-.22,0-.37-.18-.38-.39-1.08,0-1.6.85-1.6,1.69v1.11h.99c.13,0,.37,0,.37.28s-.23.27-.37.27h-2.32c-.14,0-.36,0-.36-.28s.22-.27.36-.27h.72v-2.75h-.72c-.14,0-.36,0-.36-.28s.22-.27.36-.27h.98c.3,0,.36.09.36.36v.3c.49-.56,1.06-.72,1.51-.72.74,0,.84.37.84.55,0,.24-.18.38-.37.38Z"/>
      <path class="cls-2" d="M201.34,420.07c-1.15,0-2.05-.9-2.05-1.98s.85-1.98,1.91-1.98c1.16,0,1.73.87,1.73,1.89,0,.33-.17.33-.36.33h-2.65c.14.77.81,1.21,1.48,1.21.25,0,.73-.08.92-.53.06-.17.13-.2.29-.2.05,0,.31,0,.31.25,0,.22-.42,1.02-1.59,1.02ZM201.21,416.65c-.62,0-1.15.49-1.27,1.14h2.37c-.08-.92-.63-1.14-1.09-1.14Z"/>
      <path class="cls-2" d="M206.15,420.07c-.65,0-1.25-.32-1.25-1.17v-2.17h-.78c-.13,0-.36,0-.36-.27s.22-.28.36-.28h.77v-.73c0-.18,0-.37.31-.37s.3.2.3.37v.73h1.46c.14,0,.36,0,.36.28s-.22.27-.36.27h-1.46v2.12c0,.22,0,.68.69.68.2,0,.71-.09.72-.64,0-.15,0-.34.3-.34.31,0,.31.19.31.35,0,.79-.72,1.17-1.38,1.17Z"/>
      <path class="cls-2" d="M210.9,420.07c-.65,0-1.25-.32-1.25-1.17v-2.17h-.78c-.13,0-.36,0-.36-.27s.22-.28.36-.28h.77v-.73c0-.18,0-.37.31-.37s.3.2.3.37v.73h1.46c.14,0,.36,0,.36.28s-.22.27-.36.27h-1.46v2.12c0,.22,0,.68.69.68.2,0,.71-.09.72-.64,0-.15,0-.34.3-.34.31,0,.31.19.31.35,0,.79-.72,1.17-1.38,1.17Z"/>
      <path class="cls-2" d="M216.51,420.02h-2.62c-.13,0-.36,0-.36-.27s.22-.28.36-.28h1.08v-2.75h-1c-.13,0-.37,0-.37-.28s.23-.27.37-.27h1.26c.3,0,.36.09.36.36v2.93h.93c.13,0,.37,0,.37.28s-.23.27-.37.27ZM215.17,415.53c-.25,0-.45-.2-.45-.45s.2-.44.45-.44.44.2.44.44-.2.45-.44.45Z"/>
    </g>
    <g>
      <path class="cls-2" d="M146.38,431.15h-.19l-1.31,2.72v1.63h.22c.14,0,.36,0,.36.28s-.22.27-.36.27h-1.06c-.14,0-.36,0-.36-.28s.22-.27.36-.27h.22v-1.63l-1.32-2.72h-.19c-.14,0-.36,0-.36-.28s.22-.27.36-.27h.93c.13,0,.36,0,.36.27s-.2.28-.41.28c.09.19.81,1.65.93,2.1l.93-2.1c-.21,0-.41,0-.41-.28s.22-.27.36-.27h.93c.14,0,.36,0,.36.28s-.22.27-.36.27Z"/>
      <path class="cls-2" d="M148.97,436.1c-1.15,0-2.05-.9-2.05-1.98s.85-1.98,1.91-1.98c1.16,0,1.73.87,1.73,1.89,0,.33-.17.33-.36.33h-2.65c.14.77.81,1.21,1.48,1.21.25,0,.73-.08.92-.53.06-.17.13-.2.29-.2.05,0,.31,0,.31.25,0,.22-.42,1.02-1.59,1.02ZM148.84,432.68c-.62,0-1.15.49-1.27,1.14h2.37c-.08-.92-.63-1.14-1.09-1.14Z"/>
      <path class="cls-2" d="M155.5,436.05h-1.36c-.12,0-.37,0-.37-.27s.22-.28.37-.28h.35v-2.02c0-.53-.12-.78-.6-.78s-1.11.34-1.11,1.23v1.57h.39c.14,0,.36,0,.36.28s-.23.27-.36.27h-1.41c-.12,0-.36,0-.36-.27s.22-.28.37-.28h.39v-2.75h-.4c-.12,0-.36,0-.36-.27s.22-.28.37-.28h.65c.36,0,.36.13.36.42.17-.17.57-.47,1.17-.47.7,0,1.16.38,1.16,1.28v2.06h.39c.14,0,.36,0,.36.28s-.23.27-.36.27Z"/>
      <path class="cls-2" d="M160.39,436.05c-.34,0-.76,0-.96-.29-.42.28-.97.34-1.3.34-.91,0-1.47-.58-1.47-1.19,0-.85,1.09-1.3,2.67-1.33,0-.63-.46-.91-1.14-.91-.08,0-.2,0-.32,0-.18.02-.19.03-.19.1,0,.33-.26.41-.39.41-.21,0-.4-.14-.4-.41,0-.65.91-.65,1.29-.65,1.28,0,1.76.75,1.76,1.38v1.92c.07.03.16.07.53.07.13,0,.36,0,.36.27s-.2.28-.45.28ZM159.33,434.11c-1.29.04-2.05.37-2.05.8,0,.35.37.65.92.65.07,0,.47,0,.79-.15.35-.16.35-.35.35-.55v-.75Z"/>
      <path class="cls-2" d="M169.67,436.05h-1.06c-.14,0-.36,0-.36-.28s.22-.27.36-.27h.22v-2.01h-1.89v2.01h.22c.14,0,.36,0,.36.28s-.22.27-.36.27h-1.06c-.13,0-.36,0-.36-.27s.21-.28.36-.28h.22v-4.35h-.22c-.13,0-.36,0-.36-.27s.21-.28.36-.28h1.06c.14,0,.36,0,.36.28s-.22.27-.36.27h-.22v1.8h1.89v-1.8h-.22c-.14,0-.36,0-.36-.28s.22-.27.36-.27h1.06c.14,0,.36,0,.36.28s-.22.27-.36.27h-.22v4.35h.22c.14,0,.36,0,.36.28s-.22.27-.36.27Z"/>
      <path class="cls-2" d="M172.59,436.1c-.98,0-1.82-.85-1.82-1.98s.83-1.99,1.82-1.99,1.82.88,1.82,1.99-.84,1.98-1.82,1.98ZM172.59,432.68c-.63,0-1.21.58-1.21,1.39s.55,1.49,1.21,1.49,1.21-.67,1.21-1.49-.57-1.39-1.21-1.39Z"/>
      <path class="cls-2" d="M179.26,436.05h-1.36c-.12,0-.37,0-.37-.27s.22-.28.37-.28h.35v-2.02c0-.53-.12-.78-.6-.78s-1.11.34-1.11,1.23v1.57h.39c.14,0,.36,0,.36.28s-.23.27-.36.27h-1.41c-.12,0-.36,0-.36-.27s.22-.28.37-.28h.39v-2.75h-.4c-.12,0-.36,0-.36-.27s.22-.28.37-.28h.65c.36,0,.36.13.36.42.17-.17.57-.47,1.17-.47.7,0,1.16.38,1.16,1.28v2.06h.39c.14,0,.36,0,.36.28s-.23.27-.36.27Z"/>
      <path class="cls-2" d="M184.21,432.96c-.09,0-.29-.06-.35-.3-.12,0-.33.04-.52.15.15.25.23.51.23.77,0,.79-.65,1.43-1.47,1.43-.44,0-.77-.2-.8-.22-.04.09-.05.21-.05.25,0,0,0,.2.11.32.11.12.16.12.29.12.07.02.19.02.26.02h.62c.8,0,1.17.2,1.29.26.45.24.61.69.61,1.01,0,.76-.93,1.31-2.07,1.31s-2.07-.54-2.07-1.31c0-.1,0-.7.66-1.1-.08-.11-.2-.33-.2-.64,0-.27.08-.46.18-.61-.13-.17-.29-.46-.29-.84,0-.76.63-1.42,1.47-1.42.41,0,.72.17.86.27.41-.3.84-.31.94-.31.48,0,.65.28.65.48,0,.26-.21.36-.36.36ZM182.13,436.01c-.65,0-.73,0-.95.14-.29.18-.36.46-.36.62,0,.39.67.77,1.56.77s1.56-.38,1.56-.77c0-.76-1.01-.76-1.8-.76ZM182.11,432.69c-.46,0-.85.39-.85.9,0,.47.37.89.85.89s.85-.39.85-.9c0-.47-.37-.89-.85-.89Z"/>
    </g>
    <g>
      <path class="cls-2" d="M144.61,452.07h-1.83c-.13,0-.37,0-.37-.27s.22-.28.37-.28h.2v-4.35h-.2c-.13,0-.37,0-.37-.27s.22-.28.37-.28h1.83c1.18,0,1.95,1.33,1.95,2.76s-.78,2.68-1.95,2.68ZM144.44,447.18h-.85v4.35h.85c.99,0,1.5-1.09,1.5-2.13s-.5-2.21-1.5-2.21Z"/>
      <path class="cls-2" d="M149.64,452.13c-1.15,0-2.05-.9-2.05-1.98s.85-1.98,1.91-1.98c1.16,0,1.73.87,1.73,1.89,0,.33-.17.33-.36.33h-2.65c.14.77.81,1.21,1.48,1.21.25,0,.73-.08.92-.53.06-.17.13-.2.29-.2.05,0,.31,0,.31.25,0,.22-.42,1.02-1.59,1.02ZM149.5,448.7c-.62,0-1.15.49-1.27,1.14h2.37c-.08-.92-.63-1.14-1.09-1.14Z"/>
      <path class="cls-2" d="M154.43,452.13c-1.12,0-1.96-.91-1.96-1.98,0-.78.53-1.99,2.06-1.99.4,0,1.33,0,1.33.65,0,.26-.19.41-.4.41s-.38-.12-.39-.44c0-.08-.35-.08-.53-.08-1.2,0-1.45,1.02-1.45,1.45,0,.81.64,1.43,1.4,1.43.66,0,.83-.42.88-.53.06-.18.15-.2.29-.2.05,0,.31,0,.31.25,0,.15-.3,1.02-1.54,1.02Z"/>
      <path class="cls-2" d="M159.08,452.13c-1.15,0-2.05-.9-2.05-1.98s.85-1.98,1.91-1.98c1.16,0,1.73.87,1.73,1.89,0,.33-.17.33-.36.33h-2.65c.14.77.81,1.21,1.48,1.21.25,0,.73-.08.92-.53.06-.17.13-.2.29-.2.05,0,.31,0,.31.25,0,.22-.42,1.02-1.59,1.02ZM158.94,448.7c-.62,0-1.15.49-1.27,1.14h2.37c-.08-.92-.63-1.14-1.09-1.14Z"/>
      <path class="cls-2" d="M165.74,452.07h-.67c-.12,0-.37,0-.37-.27s.22-.28.39-.28v-2.07c0-.58-.12-.73-.33-.73-.36,0-.73.42-.73,1.21v1.59c.32,0,.51,0,.51.28s-.23.27-.36.27h-.67c-.12,0-.37,0-.37-.27s.22-.28.39-.28v-2.07c0-.58-.12-.73-.33-.73-.37,0-.73.42-.73,1.21v1.59c.32,0,.51,0,.51.28s-.23.27-.36.27h-.78c-.12,0-.36,0-.36-.27s.19-.28.51-.28v-2.75c-.32,0-.51,0-.51-.28s.23-.27.36-.27h.29c.16,0,.34,0,.36.27.21-.2.48-.32.76-.32s.54.16.68.46c.25-.35.61-.46.88-.46.79,0,.79,1.01.79,1.19v2.15c.32,0,.51,0,.51.28s-.23.27-.36.27Z"/>
      <path class="cls-2" d="M168.86,452.13c-.29,0-.67-.08-1.03-.45,0,.22,0,.4-.3.4s-.31-.19-.31-.36v-4.53h-.4c-.12,0-.36,0-.36-.27s.22-.28.37-.28h.65c.3,0,.36.09.36.37v1.62c.3-.28.7-.44,1.13-.44.94,0,1.73.87,1.73,1.97s-.86,1.98-1.83,1.98ZM168.9,448.73c-.56,0-1.08.47-1.08,1v.65c0,.43.31,1.21,1.01,1.21.62,0,1.25-.58,1.25-1.43,0-.77-.52-1.42-1.17-1.42Z"/>
      <path class="cls-2" d="M173.76,452.13c-1.15,0-2.05-.9-2.05-1.98s.85-1.98,1.91-1.98c1.16,0,1.73.87,1.73,1.89,0,.33-.17.33-.36.33h-2.65c.14.77.81,1.21,1.48,1.21.25,0,.73-.08.92-.53.06-.17.13-.2.29-.2.05,0,.31,0,.31.25,0,.22-.42,1.02-1.59,1.02ZM173.63,448.7c-.62,0-1.15.49-1.27,1.14h2.37c-.08-.92-.63-1.14-1.09-1.14Z"/>
      <path class="cls-2" d="M179.98,449.12c-.22,0-.37-.18-.38-.39-1.08,0-1.6.85-1.6,1.69v1.11h.99c.13,0,.37,0,.37.28s-.23.27-.37.27h-2.32c-.14,0-.36,0-.36-.28s.22-.27.36-.27h.72v-2.75h-.72c-.14,0-.36,0-.36-.28s.22-.27.36-.27h.98c.3,0,.36.09.36.36v.3c.49-.56,1.06-.72,1.51-.72.74,0,.84.37.84.55,0,.24-.18.38-.37.38Z"/>
      <path class="cls-2" d="M188.93,452.07h-2.23c-.13,0-.36,0-.36-.27s.21-.28.36-.28h.81v-3.75c-.39.34-.76.39-.92.39-.13,0-.29-.04-.29-.27,0-.25.19-.27.33-.28.17-.02.63-.12.97-.87.04-.11.1-.21.27-.21.27,0,.27.22.27.36v4.63h.81c.14,0,.36,0,.36.28s-.22.27-.36.27Z"/>
      <path class="cls-2" d="M191.87,452.17c-1.14,0-1.3-.63-1.3-.92,0-.27.18-.42.4-.42s.39.18.39.39c0,.15-.04.2-.08.25.19.14.51.15.59.15.85,0,1.55-.88,1.64-1.98-.4.37-.86.52-1.33.52-.98,0-1.76-.79-1.76-1.81,0-1.08.9-1.81,1.89-1.81.84,0,1.83.61,1.83,2.76,0,1.76-1.09,2.87-2.27,2.87ZM193.08,447.47c-.14-.18-.39-.38-.77-.38-.64,0-1.27.5-1.27,1.27,0,.66.47,1.25,1.19,1.25s1.22-.51,1.22-1c0-.63-.08-.8-.37-1.15Z"/>
      <path class="cls-2" d="M195.78,453.31c-.15,0-.28-.15-.28-.28,0-.18.16-.22.25-.25.11-.04.52-.18.66-.73-.06.02-.12.03-.18.03-.29,0-.55-.22-.55-.56,0-.28.2-.55.56-.55.39,0,.74.35.74.89,0,.98-.91,1.46-1.19,1.46Z"/>
      <path class="cls-2" d="M207.07,452.07h-3.02c-.14,0-.36,0-.36-.28,0-.12.05-.17.13-.24l1.97-1.66c.59-.49,1.02-1,1.02-1.63,0-.78-.68-1.19-1.41-1.19-.49,0-.91.28-1.04.68.08.06.12.18.12.29,0,.25-.2.4-.39.4-.15,0-.4-.1-.4-.43,0-.76.7-1.49,1.75-1.49s1.98.67,1.98,1.73c0,.71-.41,1.28-.97,1.78-.38.36-1.24,1.02-1.76,1.48h2.12c0-.25,0-.42.31-.42s.3.2.3.37v.23c0,.28-.06.36-.36.36Z"/>
      <path class="cls-2" d="M210.36,452.17c-.98,0-1.89-1.17-1.89-2.82s.89-2.81,1.89-2.81,1.89,1.17,1.89,2.82-.89,2.81-1.89,2.81ZM210.36,447.08c-.66,0-1.27.88-1.27,2.18s.58,2.37,1.27,2.37,1.27-1.05,1.27-2.37-.62-2.18-1.27-2.18Z"/>
      <path class="cls-2" d="M216.63,452.07h-3.02c-.14,0-.36,0-.36-.28,0-.12.05-.17.13-.24l1.97-1.66c.59-.49,1.02-1,1.02-1.63,0-.78-.68-1.19-1.41-1.19-.49,0-.91.28-1.04.68.08.06.12.18.12.29,0,.25-.2.4-.39.4-.15,0-.4-.1-.4-.43,0-.76.7-1.49,1.75-1.49s1.98.67,1.98,1.73c0,.71-.41,1.28-.97,1.78-.38.36-1.24,1.02-1.76,1.48h2.12c0-.25,0-.42.31-.42s.3.2.3.37v.23c0,.28-.06.36-.36.36Z"/>
      <path class="cls-2" d="M221.48,450.57h-.69v.96h.55c.14,0,.36,0,.36.28s-.22.27-.36.27h-1.6c-.13,0-.36,0-.36-.27s.21-.28.36-.28h.55v-.96h-2.24c-.28,0-.36-.06-.36-.36,0-.18,0-.2.08-.31l2.03-3.18c.12-.18.16-.19.37-.19h.25c.3,0,.36.07.36.36v3.13h.69c.14,0,.36,0,.36.28s-.22.27-.36.27ZM220.28,446.92l-1.97,3.1h1.97v-3.1Z"/>
    </g>
    <g>
      <path class="cls-2" d="M144.76,404.09c-1.16,0-2.15-1.19-2.15-2.82s1-2.81,2.14-2.81c.45,0,.86.18,1.16.43.12-.22.12-.24.13-.28.04-.06.09-.15.25-.15.27,0,.27.22.27.36v1.24c0,.18,0,.36-.31.36-.27,0-.28-.14-.31-.29-.12-.72-.61-1.13-1.15-1.13-.79,0-1.57.94-1.57,2.27s.76,2.28,1.57,2.28c.37,0,1.09-.21,1.15-1.09.02-.26.22-.26.3-.26.1,0,.31,0,.31.29,0,.8-.76,1.59-1.8,1.59Z"/>
      <path class="cls-2" d="M149.42,404.05c-.98,0-1.82-.85-1.82-1.98s.83-1.99,1.82-1.99,1.82.88,1.82,1.99-.84,1.98-1.82,1.98ZM149.42,400.62c-.63,0-1.21.58-1.21,1.39s.55,1.49,1.21,1.49,1.21-.67,1.21-1.49-.57-1.39-1.21-1.39Z"/>
      <path class="cls-2" d="M155.44,403.99h-2.93c-.12,0-.36,0-.36-.27s.22-.28.37-.28h1.15v-4.35h-1.16c-.12,0-.36,0-.36-.27s.22-.28.37-.28h1.41c.3,0,.36.09.36.37v4.53h1.16c.14,0,.36,0,.36.28s-.22.27-.36.27Z"/>
      <path class="cls-2" d="M160.22,403.99h-2.93c-.12,0-.36,0-.36-.27s.22-.28.37-.28h1.15v-4.35h-1.16c-.12,0-.36,0-.36-.27s.22-.28.37-.28h1.41c.3,0,.36.09.36.37v4.53h1.16c.14,0,.36,0,.36.28s-.22.27-.36.27Z"/>
      <path class="cls-2" d="M165.33,403.99c-.34,0-.76,0-.96-.28-.42.28-.97.34-1.3.34-.91,0-1.47-.58-1.47-1.19,0-.85,1.09-1.3,2.67-1.33,0-.63-.46-.91-1.14-.91-.08,0-.2,0-.32,0-.18.02-.19.03-.19.1,0,.33-.26.41-.39.41-.21,0-.4-.14-.4-.41,0-.65.91-.65,1.29-.65,1.28,0,1.76.75,1.76,1.38v1.92c.07.03.16.07.53.07.13,0,.36,0,.36.27s-.2.28-.45.28ZM164.27,402.05c-1.29.04-2.05.37-2.05.8,0,.35.36.65.92.65.07,0,.47,0,.79-.15.35-.16.35-.35.35-.55v-.75Z"/>
      <path class="cls-2" d="M168.5,404.05c-.29,0-.67-.08-1.03-.45,0,.22,0,.4-.3.4s-.31-.19-.31-.36v-4.53h-.4c-.12,0-.36,0-.36-.27s.22-.28.37-.28h.65c.3,0,.36.09.36.37v1.62c.3-.28.7-.44,1.13-.44.94,0,1.73.87,1.73,1.97s-.86,1.98-1.83,1.98ZM168.54,400.65c-.56,0-1.08.47-1.08,1v.65c0,.43.31,1.21,1.01,1.21.62,0,1.25-.58,1.25-1.43,0-.77-.52-1.42-1.17-1.42Z"/>
      <path class="cls-2" d="M173.19,404.05c-.98,0-1.82-.85-1.82-1.98s.83-1.99,1.82-1.99,1.82.88,1.82,1.99-.84,1.98-1.82,1.98ZM173.19,400.62c-.63,0-1.21.58-1.21,1.39s.55,1.49,1.21,1.49,1.21-.67,1.21-1.49-.57-1.39-1.21-1.39Z"/>
      <path class="cls-2" d="M179.49,401.04c-.22,0-.37-.18-.38-.39-1.08,0-1.6.85-1.6,1.69v1.11h.99c.13,0,.37,0,.37.28s-.23.27-.37.27h-2.32c-.14,0-.36,0-.36-.28s.22-.27.36-.27h.72v-2.75h-.72c-.14,0-.36,0-.36-.28s.22-.27.36-.27h.98c.3,0,.36.09.36.36v.3c.49-.56,1.06-.72,1.51-.72.74,0,.84.37.84.55,0,.24-.18.38-.37.38Z"/>
      <path class="cls-2" d="M184.49,403.99c-.34,0-.76,0-.96-.28-.42.28-.97.34-1.3.34-.91,0-1.47-.58-1.47-1.19,0-.85,1.09-1.3,2.67-1.33,0-.63-.46-.91-1.14-.91-.08,0-.2,0-.32,0-.18.02-.19.03-.19.1,0,.33-.26.41-.39.41-.21,0-.4-.14-.4-.41,0-.65.91-.65,1.29-.65,1.28,0,1.76.75,1.76,1.38v1.92c.07.03.16.07.53.07.13,0,.36,0,.36.27s-.2.28-.45.28ZM183.43,402.05c-1.29.04-2.05.37-2.05.8,0,.35.36.65.92.65.07,0,.47,0,.79-.15.35-.16.35-.35.35-.55v-.75Z"/>
      <path class="cls-2" d="M187.54,404.05c-.65,0-1.25-.32-1.25-1.17v-2.17h-.78c-.13,0-.36,0-.36-.27s.22-.28.36-.28h.77v-.73c0-.18,0-.37.31-.37s.3.2.3.37v.73h1.46c.14,0,.36,0,.36.28s-.22.27-.36.27h-1.46v2.12c0,.22,0,.68.69.68.2,0,.71-.09.72-.64,0-.15,0-.34.3-.34.31,0,.31.19.31.35,0,.79-.72,1.17-1.38,1.17Z"/>
      <path class="cls-2" d="M193.16,403.99h-2.62c-.13,0-.36,0-.36-.27s.22-.28.36-.28h1.08v-2.75h-1c-.13,0-.37,0-.37-.28s.23-.27.37-.27h1.26c.3,0,.36.09.36.36v2.93h.93c.13,0,.37,0,.37.28s-.23.27-.37.27ZM191.82,399.5c-.25,0-.45-.2-.45-.45s.2-.44.45-.44.44.2.44.44-.2.45-.44.45Z"/>
      <path class="cls-2" d="M196.32,404.05c-.98,0-1.82-.85-1.82-1.98s.83-1.99,1.82-1.99,1.82.88,1.82,1.99-.84,1.98-1.82,1.98ZM196.32,400.62c-.63,0-1.21.58-1.21,1.39s.55,1.49,1.21,1.49,1.21-.67,1.21-1.49-.57-1.39-1.21-1.39Z"/>
      <path class="cls-2" d="M202.99,403.99h-1.36c-.12,0-.37,0-.37-.27s.22-.28.37-.28h.35v-2.02c0-.53-.12-.78-.6-.78s-1.11.34-1.11,1.23v1.57h.39c.14,0,.36,0,.36.28s-.23.27-.36.27h-1.41c-.12,0-.36,0-.36-.27s.22-.28.37-.28h.39v-2.75h-.4c-.12,0-.36,0-.36-.27s.22-.28.37-.28h.65c.36,0,.36.13.36.42.17-.17.57-.47,1.17-.47.7,0,1.16.38,1.16,1.28v2.06h.39c.14,0,.36,0,.36.28s-.23.27-.36.27Z"/>
    </g>
    <rect class="cls-4" x="362.83" y="0" width="362.83" height="515.91"/>
  </g>
</svg>