<?xml version="1.0" encoding="UTF-8"?>
<svg id="Layer_1" data-name="Layer 1" xmlns="http://www.w3.org/2000/svg" xmlns:xlink="http://www.w3.org/1999/xlink" viewBox="0 0 362.83 515.91">
  <defs>
    <style>
      .cls-1 {
        fill: none;
      }

      .cls-2 {
        fill: #231f20;
      }

      .cls-3 {
        fill: #b8b8b8;
      }

      .cls-4 {
        clip-path: url(#clippath);
      }
    </style>
    <clipPath id="clippath">
      <rect class="cls-1" width="362.83" height="515.91"/>
    </clipPath>
  </defs>
  <g class="cls-4">
    <rect class="cls-3" y="0" width="362.83" height="515.91"/>
    <g>
      <path class="cls-2" d="M174.87,422.69l-.9,6.55c-.04.22-.06.47-.49.47-.12,0-.36,0-.49-.25-.05-.11-.7-2.99-.75-3.56h-.01c-.05.61-.7,3.45-.72,3.52-.11.29-.38.29-.5.29-.42,0-.45-.24-.49-.49l-.9-6.54h-.01c-.08,0-.44,0-.44-.36s.34-.36.51-.36h.92c.18,0,.51,0,.51.36s-.34.36-.51.36h-.27l.64,5c.06.5.09.67.1,1.01h.01c.06-.84.62-3.31.67-3.42.11-.26.38-.26.49-.26s.42,0,.51.32c0,0,.59,2.47.65,3.36h.01c.01-.48.12-1.25.21-1.96l.54-4.05h-.29c-.17,0-.51,0-.51-.36s.34-.36.51-.36h.92c.17,0,.51,0,.51.36s-.36.36-.45.36Z"/>
      <path class="cls-2" d="M180.22,429.6h-3.47c-.17,0-.51,0-.51-.36s.34-.36.51-.36h1.42v-3.94h-1.34c-.18,0-.5,0-.5-.36s.32-.36.5-.36h1.65c.42,0,.5.12.5.51v4.15h1.24c.17,0,.5,0,.5.36s-.32.36-.5.36ZM178.42,423.21c-.31,0-.56-.25-.56-.56s.25-.56.56-.56.56.25.56.56-.25.56-.56.56Z"/>
      <path class="cls-2" d="M184.48,429.67c-.9,0-1.7-.42-1.7-1.59v-3.15h-1.07c-.17,0-.5,0-.5-.36s.34-.36.51-.36h1.06v-1.03c0-.22,0-.51.41-.51s.4.29.4.51v1.03h2.02c.17,0,.5,0,.5.36s-.33.36-.5.36h-2.02v3.09c0,.3,0,.92.97.92.29,0,1-.12,1.01-.88,0-.26,0-.54.4-.54s.41.27.41.52c0,1.27-1.24,1.61-1.91,1.61Z"/>
      <path class="cls-2" d="M193.12,429.6h-1.84c-.18,0-.5,0-.5-.36s.32-.36.5-.36h.51v-2.89c0-.71-.15-1.12-.87-1.12-.68,0-1.53.54-1.53,1.75v2.26h.51c.17,0,.5,0,.5.36s-.33.36-.5.36h-1.84c-.17,0-.5,0-.5-.36s.33-.36.5-.36h.51v-6.19h-.51c-.17,0-.5,0-.5-.36s.33-.36.5-.36h.82c.43,0,.5.12.5.51v2.37c.21-.24.76-.71,1.61-.71,1.02,0,1.6.57,1.6,1.8v2.94h.51c.17,0,.5,0,.5.36s-.33.36-.5.36Z"/>
    </g>
    <g>
      <path class="cls-2" d="M136.18,438.02l-1.67,6.6c-.11.42-.36.42-.64.42s-.54,0-.65-.45l-1.66-6.57h-.01c-.38,0-.66,0-.66-.36s.33-.36.5-.36h1.17c.17,0,.51,0,.51.36s-.3.36-.67.36l1.14,4.54c.12.51.26,1.04.34,1.52h.01c.07-.51.29-1.39.45-2.02l1.01-4.04c-.38,0-.67,0-.67-.36s.34-.36.51-.36h1.17c.18,0,.5,0,.5.36s-.29.36-.67.36Z"/>
      <path class="cls-2" d="M141.59,444.93h-3.47c-.17,0-.51,0-.51-.36s.34-.36.51-.36h1.42v-3.94h-1.34c-.18,0-.5,0-.5-.36s.32-.36.5-.36h1.65c.42,0,.5.12.5.51v4.15h1.24c.17,0,.5,0,.5.36s-.32.36-.5.36ZM139.79,438.55c-.31,0-.56-.25-.56-.56s.25-.56.56-.56.56.25.56.56-.25.56-.56.56Z"/>
      <path class="cls-2" d="M146.03,445.01c-1.5,0-2.66-1.25-2.66-2.77,0-1.05.69-2.8,2.82-2.8.55,0,1.81,0,1.81.86,0,.34-.24.53-.51.53-.08,0-.46-.01-.5-.53,0-.06-.01-.07-.1-.1-.11-.01-.38-.04-.71-.04-1.64,0-2,1.44-2,2.07,0,1.16.9,2.05,1.96,2.05.3,0,.91-.08,1.19-.76.06-.17.11-.28.4-.28.1,0,.41,0,.41.33,0,.2-.44,1.44-2.11,1.44Z"/>
      <path class="cls-2" d="M152.01,445.01c-1.34,0-2.49-1.2-2.49-2.77s1.14-2.8,2.49-2.8,2.49,1.24,2.49,2.8-1.15,2.77-2.49,2.77ZM152.01,440.16c-.88,0-1.67.82-1.67,1.99s.77,2.14,1.67,2.14,1.67-.94,1.67-2.14-.8-1.99-1.67-1.99Z"/>
      <path class="cls-2" d="M167.37,444.93h-.95c-.17,0-.51,0-.51-.36s.31-.36.64-.36v-6.01c-.01.18-1.14,3.67-1.2,3.86-.1.22-.31.32-.46.32-.36,0-.47-.35-.5-.45l-.89-2.79c-.15-.45-.19-.59-.26-.97h-.01v6.04c.33,0,.64,0,.64.36s-.34.36-.51.36h-.95c-.17,0-.51,0-.51-.36s.31-.36.64-.36v-6.19c-.33,0-.64,0-.64-.36s.34-.36.51-.36h.66c.21,0,.46,0,.6.29.02.05,1.11,3.32,1.21,3.95h.01c.08-.41.27-1.01.44-1.52l.72-2.24c.1-.32.17-.47.66-.47h.66c.18,0,.51,0,.51.36s-.31.36-.64.36v6.19c.33,0,.64,0,.64.36s-.34.36-.51.36Z"/>
      <path class="cls-2" d="M174,444.93c-.47,0-1.1-.03-1.35-.44-.65.45-1.42.51-1.82.51-1.16,0-1.95-.75-1.95-1.64s.8-1.3,1.42-1.51c.78-.25,1.5-.3,2.24-.33,0-.36,0-.71-.45-1.06-.41-.31-.84-.31-1.12-.31-.15,0-.31,0-.46.01-.26.03-.27.04-.27.1-.01.52-.42.55-.5.55-.28,0-.51-.19-.51-.53,0-.86,1.21-.86,1.74-.86,1.69,0,2.4,1,2.4,1.95v2.72c.17.08.42.1.75.1.17,0,.5,0,.5.36s-.3.36-.6.36ZM172.54,442.21c-1.51,0-2.85.42-2.85,1.16,0,.51.54.91,1.28.91.04,0,.62,0,1.06-.21.51-.24.51-.5.51-.79v-1.08Z"/>
      <path class="cls-2" d="M180.8,440.52s-.38-.01-.45-.4c-.19.01-.49.05-.81.23.26.41.34.8.34,1.11,0,1.08-.88,1.99-2.01,1.99-.45,0-.86-.16-1.11-.34-.05.1-.09.15-.09.39,0,.67.58.67.72.67h1.06c.41,0,2.62,0,2.62,1.8,0,1.05-1.26,1.82-2.85,1.82s-2.85-.79-2.85-1.82c0-.49.25-1.16.94-1.54-.1-.11-.31-.46-.31-.9,0-.15.04-.53.27-.88-.35-.45-.41-.92-.41-1.2,0-1.07.88-1.99,2.01-1.99.35,0,.78.1,1.19.39.53-.41,1.09-.46,1.31-.46.7,0,.89.41.89.65,0,.38-.31.48-.46.48ZM177.89,444.87c-.86,0-.99,0-1.27.19-.46.29-.52.72-.52.91,0,.58.91,1.12,2.14,1.12s2.14-.55,2.14-1.12c0-1.1-1.38-1.1-2.47-1.1ZM177.87,440.17c-.61,0-1.19.55-1.19,1.29s.56,1.29,1.19,1.29c.66,0,1.2-.58,1.2-1.29s-.54-1.29-1.2-1.29Z"/>
      <path class="cls-2" d="M186.53,444.93h-3.47c-.17,0-.51,0-.51-.36s.34-.36.51-.36h1.42v-3.94h-1.34c-.18,0-.5,0-.5-.36s.32-.36.5-.36h1.65c.42,0,.5.12.5.51v4.15h1.24c.17,0,.5,0,.5.36s-.32.36-.5.36ZM184.73,438.55c-.31,0-.56-.25-.56-.56s.25-.56.56-.56.56.25.56.56-.25.56-.56.56Z"/>
      <path class="cls-2" d="M191.08,445.01c-.39,0-1.04-.04-1.61-.51-.19.51-.3.51-.45.51-.35,0-.35-.28-.35-.48v-1.29c0-.25,0-.49.41-.49.31,0,.35.14.41.31.26.9.79,1.21,1.59,1.21,1.16,0,1.59-.44,1.59-.9,0-.69-1-.85-1.49-.94-1.03-.16-1.39-.22-1.79-.45-.42-.24-.72-.59-.72-1.1,0-.42.27-1.46,2.31-1.46.25,0,.83,0,1.32.3,0,0,.08-.3.38-.3.35,0,.35.28.35.48v.95c0,.25,0,.47-.41.47-.15,0-.38-.04-.4-.29-.03-.33-.08-.89-1.26-.89s-1.56.4-1.56.74c0,.52.75.65,1.85.84.6.09,2.15.35,2.15,1.65,0,.12,0,1.62-2.31,1.62Z"/>
      <path class="cls-2" d="M197.78,445.01c-.9,0-1.7-.42-1.7-1.59v-3.15h-1.07c-.17,0-.5,0-.5-.36s.34-.36.51-.36h1.06v-1.03c0-.22,0-.51.41-.51s.4.29.4.51v1.03h2.02c.17,0,.5,0,.5.36s-.33.36-.5.36h-2.02v3.09c0,.3,0,.92.97.92.29,0,1-.12,1.01-.88,0-.26,0-.54.4-.54s.41.27.41.52c0,1.27-1.24,1.61-1.91,1.61Z"/>
      <path class="cls-2" d="M206.04,440.7c-.09,0-.44-.04-.47-.49-.06-.01-.14-.01-.2-.01-1.06,0-2.11.89-2.11,2.37v1.64h1.31c.17,0,.5,0,.5.36s-.33.36-.5.36h-3.07c-.17,0-.5,0-.5-.36s.33-.36.5-.36h.95v-3.94h-.95c-.17,0-.5,0-.5-.36s.33-.36.5-.36h1.26c.42,0,.5.12.5.51v.49c.58-.7,1.29-1.07,2.12-1.07.62,0,1.15.2,1.15.74,0,.27-.2.49-.49.49Z"/>
      <path class="cls-2" d="M210.4,445.01c-1.54,0-2.8-1.22-2.8-2.8s1.16-2.77,2.61-2.77c1.56,0,2.39,1.17,2.39,2.64,0,.46-.24.46-.5.46h-3.66c.14.96.96,1.75,2,1.75.24,0,1.05-.06,1.36-.79.08-.19.15-.27.39-.27.39,0,.41.27.41.35,0,.33-.59,1.44-2.2,1.44ZM210.22,440.16c-.79,0-1.6.62-1.76,1.69h3.32c-.05-.62-.31-1.69-1.56-1.69Z"/>
      <path class="cls-2" d="M216.87,445.01c-.9,0-1.7-.42-1.7-1.59v-3.15h-1.07c-.17,0-.5,0-.5-.36s.34-.36.51-.36h1.06v-1.03c0-.22,0-.51.41-.51s.4.29.4.51v1.03h2.02c.17,0,.5,0,.5.36s-.33.36-.5.36h-2.02v3.09c0,.3,0,.92.97.92.29,0,1-.12,1.01-.88,0-.26,0-.54.4-.54s.41.27.41.52c0,1.27-1.24,1.61-1.91,1.61Z"/>
      <path class="cls-2" d="M223.27,445.01c-.9,0-1.7-.42-1.7-1.59v-3.15h-1.07c-.17,0-.5,0-.5-.36s.34-.36.51-.36h1.06v-1.03c0-.22,0-.51.41-.51s.4.29.4.51v1.03h2.02c.17,0,.5,0,.5.36s-.33.36-.5.36h-2.02v3.09c0,.3,0,.92.97.92.29,0,1-.12,1.01-.88,0-.26,0-.54.4-.54s.41.27.41.52c0,1.27-1.24,1.61-1.91,1.61Z"/>
      <path class="cls-2" d="M230.77,444.93h-3.47c-.17,0-.51,0-.51-.36s.34-.36.51-.36h1.42v-3.94h-1.34c-.18,0-.5,0-.5-.36s.32-.36.5-.36h1.65c.42,0,.5.12.5.51v4.15h1.24c.17,0,.5,0,.5.36s-.32.36-.5.36ZM228.97,438.55c-.31,0-.56-.25-.56-.56s.25-.56.56-.56.56.25.56.56-.25.56-.56.56Z"/>
    </g>
  </g>
</svg>