<?xml version="1.0" encoding="UTF-8"?>
<svg id="Layer_1" data-name="Layer 1" xmlns="http://www.w3.org/2000/svg" xmlns:xlink="http://www.w3.org/1999/xlink" viewBox="0 0 362.83 515.91">
  <defs>
    <style>
      .cls-1 {
        fill: none;
      }

      .cls-2 {
        fill: #231f20;
      }

      .cls-3 {
        fill: #b8b8b8;
      }

      .cls-4 {
        clip-path: url(#clippath);
      }
    </style>
    <clipPath id="clippath">
      <rect class="cls-1" width="362.83" height="515.91"/>
    </clipPath>
  </defs>
  <g class="cls-4">
    <rect class="cls-3" y="0" width="362.83" height="515.91"/>
    <g>
      <path class="cls-2" d="M143.8,153.37c-1.57,0-2.95-1.69-2.95-3.97s1.34-3.96,2.95-3.96c.52,0,1.1.19,1.61.64.04-.09.14-.31.17-.41.05-.09.11-.22.34-.22.35,0,.35.27.35.47v1.81c0,.25,0,.48-.41.48-.25,0-.36-.08-.4-.35-.17-1.15-.91-1.69-1.59-1.69-1.14,0-2.21,1.35-2.21,3.24s1.06,3.25,2.22,3.25c.21,0,1.47-.09,1.57-1.65.03-.21.22-.27.4-.27.15,0,.41,0,.41.39,0,1.1-1.01,2.26-2.47,2.26Z"/>
      <path class="cls-2" d="M150.09,153.29c-1.34,0-2.49-1.2-2.49-2.77s1.14-2.8,2.49-2.8,2.49,1.24,2.49,2.8-1.15,2.77-2.49,2.77ZM150.09,148.45c-.88,0-1.67.82-1.67,1.99s.77,2.14,1.67,2.14,1.67-.94,1.67-2.14-.8-1.99-1.67-1.99Z"/>
      <path class="cls-2" d="M158.08,153.22h-3.86c-.17,0-.5,0-.5-.36s.33-.36.5-.36h1.52v-6.19h-1.52c-.17,0-.5,0-.5-.36s.33-.36.5-.36h1.84c.42,0,.5.12.5.51v6.4h1.52c.17,0,.5,0,.5.36s-.33.36-.5.36Z"/>
      <path class="cls-2" d="M164.47,153.22h-3.86c-.17,0-.5,0-.5-.36s.33-.36.5-.36h1.52v-6.19h-1.52c-.17,0-.5,0-.5-.36s.33-.36.5-.36h1.84c.42,0,.5.12.5.51v6.4h1.52c.17,0,.5,0,.5.36s-.33.36-.5.36Z"/>
      <path class="cls-2" d="M171.4,153.22c-.47,0-1.1-.03-1.35-.44-.65.45-1.42.51-1.82.51-1.16,0-1.95-.75-1.95-1.64s.8-1.3,1.42-1.51c.78-.25,1.5-.3,2.24-.33,0-.36,0-.71-.45-1.06-.41-.31-.84-.31-1.12-.31-.15,0-.31,0-.46.01-.26.03-.27.04-.27.1-.01.52-.42.55-.5.55-.28,0-.51-.19-.51-.53,0-.86,1.21-.86,1.74-.86,1.69,0,2.4,1,2.4,1.95v2.72c.17.08.42.1.75.1.17,0,.5,0,.5.36s-.3.36-.6.36ZM169.94,150.49c-1.51,0-2.85.42-2.85,1.16,0,.51.54.91,1.28.91.04,0,.62,0,1.06-.21.51-.24.51-.5.51-.79v-1.08Z"/>
      <path class="cls-2" d="M175.64,153.29c-.7,0-1.16-.36-1.46-.7,0,.36,0,.62-.4.62s-.41-.29-.41-.51v-6.4h-.51c-.17,0-.5,0-.5-.36s.33-.36.5-.36h.82c.43,0,.5.12.5.51v2.34c.11-.12.69-.67,1.6-.67,1.3,0,2.35,1.22,2.35,2.76s-1.16,2.77-2.49,2.77ZM175.69,148.48c-.81,0-1.51.7-1.51,1.41v.99c0,.62.46,1.69,1.4,1.69.89,0,1.74-.85,1.74-2.05,0-1.12-.72-2.04-1.62-2.04Z"/>
      <path class="cls-2" d="M181.94,153.29c-1.34,0-2.49-1.2-2.49-2.77s1.14-2.8,2.49-2.8,2.49,1.24,2.49,2.8-1.15,2.77-2.49,2.77ZM181.94,148.45c-.88,0-1.67.82-1.67,1.99s.77,2.14,1.67,2.14,1.67-.94,1.67-2.14-.8-1.99-1.67-1.99Z"/>
      <path class="cls-2" d="M190.45,148.98c-.09,0-.44-.04-.47-.49-.06-.01-.14-.01-.2-.01-1.06,0-2.11.89-2.11,2.37v1.64h1.31c.17,0,.5,0,.5.36s-.33.36-.5.36h-3.07c-.17,0-.5,0-.5-.36s.33-.36.5-.36h.95v-3.94h-.95c-.17,0-.5,0-.5-.36s.33-.36.5-.36h1.26c.42,0,.5.12.5.51v.49c.58-.7,1.29-1.07,2.12-1.07.62,0,1.15.2,1.15.74,0,.27-.2.49-.49.49Z"/>
      <path class="cls-2" d="M197.17,153.22c-.47,0-1.1-.03-1.35-.44-.65.45-1.42.51-1.82.51-1.16,0-1.95-.75-1.95-1.64s.8-1.3,1.42-1.51c.78-.25,1.5-.3,2.24-.33,0-.36,0-.71-.45-1.06-.41-.31-.84-.31-1.12-.31-.15,0-.31,0-.46.01-.26.03-.27.04-.27.1-.01.52-.42.55-.5.55-.28,0-.51-.19-.51-.53,0-.86,1.21-.86,1.74-.86,1.69,0,2.4,1,2.4,1.95v2.72c.17.08.42.1.75.1.17,0,.5,0,.5.36s-.3.36-.6.36ZM195.7,150.49c-1.51,0-2.85.42-2.85,1.16,0,.51.54.91,1.28.91.04,0,.62,0,1.06-.21.51-.24.51-.5.51-.79v-1.08Z"/>
      <path class="cls-2" d="M201.17,153.29c-.9,0-1.7-.42-1.7-1.59v-3.15h-1.07c-.17,0-.5,0-.5-.36s.34-.36.51-.36h1.06v-1.03c0-.22,0-.51.41-.51s.4.29.4.51v1.03h2.02c.17,0,.5,0,.5.36s-.33.36-.5.36h-2.02v3.09c0,.3,0,.92.97.92.29,0,1-.12,1.01-.88,0-.26,0-.54.4-.54s.41.27.41.52c0,1.27-1.24,1.61-1.91,1.61Z"/>
      <path class="cls-2" d="M208.67,153.22h-3.47c-.17,0-.51,0-.51-.36s.34-.36.51-.36h1.42v-3.94h-1.34c-.18,0-.5,0-.5-.36s.32-.36.5-.36h1.65c.42,0,.5.12.5.51v4.15h1.24c.17,0,.5,0,.5.36s-.32.36-.5.36ZM206.87,146.83c-.31,0-.56-.25-.56-.56s.25-.56.56-.56.56.25.56.56-.25.56-.56.56Z"/>
      <path class="cls-2" d="M212.85,153.29c-1.34,0-2.49-1.2-2.49-2.77s1.14-2.8,2.49-2.8,2.49,1.24,2.49,2.8-1.15,2.77-2.49,2.77ZM212.85,148.45c-.88,0-1.67.82-1.67,1.99s.77,2.14,1.67,2.14,1.67-.94,1.67-2.14-.8-1.99-1.67-1.99Z"/>
      <path class="cls-2" d="M221.82,153.22h-1.84c-.18,0-.5,0-.5-.36s.32-.36.5-.36h.51v-2.89c0-.71-.15-1.12-.87-1.12-.68,0-1.53.54-1.53,1.75v2.26h.51c.17,0,.5,0,.5.36s-.33.36-.5.36h-1.84c-.17,0-.5,0-.5-.36s.33-.36.5-.36h.51v-3.94h-.51c-.17,0-.5,0-.5-.36s.33-.36.5-.36h.82c.5,0,.5.17.5.64.21-.24.76-.71,1.61-.71,1.02,0,1.6.57,1.6,1.8v2.94h.51c.17,0,.5,0,.5.36s-.33.36-.5.36Z"/>
    </g>
    <g>
      <path class="cls-2" d="M155.47,420.56l-.9,6.55c-.04.22-.06.47-.49.47-.12,0-.36,0-.49-.25-.05-.11-.7-2.99-.75-3.56h-.01c-.05.61-.7,3.45-.72,3.52-.11.29-.38.29-.5.29-.42,0-.45-.24-.49-.49l-.9-6.54h-.01c-.08,0-.44,0-.44-.36s.34-.36.51-.36h.92c.18,0,.51,0,.51.36s-.34.36-.51.36h-.27l.64,5c.06.5.09.67.1,1.01h.01c.06-.84.62-3.31.67-3.42.11-.26.38-.26.49-.26s.42,0,.51.32c0,0,.59,2.47.65,3.36h.01c.01-.48.12-1.25.21-1.96l.54-4.05h-.29c-.17,0-.51,0-.51-.36s.34-.36.51-.36h.92c.17,0,.51,0,.51.36s-.36.36-.45.36Z"/>
      <path class="cls-2" d="M161.63,423.23c-.09,0-.44-.04-.47-.49-.06-.01-.14-.01-.2-.01-1.06,0-2.11.89-2.11,2.37v1.64h1.31c.17,0,.5,0,.5.36s-.33.36-.5.36h-3.07c-.17,0-.5,0-.5-.36s.33-.36.5-.36h.95v-3.94h-.95c-.17,0-.5,0-.5-.36s.33-.36.5-.36h1.26c.42,0,.5.12.5.51v.49c.58-.7,1.29-1.07,2.12-1.07.62,0,1.15.2,1.15.74,0,.27-.2.49-.49.49Z"/>
      <path class="cls-2" d="M167.54,427.47h-3.47c-.17,0-.51,0-.51-.36s.34-.36.51-.36h1.42v-3.94h-1.34c-.18,0-.5,0-.5-.36s.32-.36.5-.36h1.65c.42,0,.5.12.5.51v4.15h1.24c.17,0,.5,0,.5.36s-.32.36-.5.36ZM165.74,421.08c-.31,0-.56-.25-.56-.56s.25-.56.56-.56.56.25.56.56-.25.56-.56.56Z"/>
      <path class="cls-2" d="M171.79,427.55c-.9,0-1.7-.42-1.7-1.59v-3.15h-1.07c-.17,0-.5,0-.5-.36s.34-.36.51-.36h1.06v-1.03c0-.22,0-.51.41-.51s.4.29.4.51v1.03h2.02c.17,0,.5,0,.5.36s-.33.36-.5.36h-2.02v3.09c0,.3,0,.92.97.92.29,0,1-.12,1.01-.88,0-.26,0-.54.4-.54s.41.27.41.52c0,1.27-1.24,1.61-1.91,1.61Z"/>
      <path class="cls-2" d="M178.19,427.55c-.9,0-1.7-.42-1.7-1.59v-3.15h-1.07c-.17,0-.5,0-.5-.36s.34-.36.51-.36h1.06v-1.03c0-.22,0-.51.41-.51s.4.29.4.51v1.03h2.02c.17,0,.5,0,.5.36s-.33.36-.5.36h-2.02v3.09c0,.3,0,.92.97.92.29,0,1-.12,1.01-.88,0-.26,0-.54.4-.54s.41.27.41.52c0,1.27-1.24,1.61-1.91,1.61Z"/>
      <path class="cls-2" d="M184.4,427.55c-1.54,0-2.8-1.22-2.8-2.8s1.16-2.77,2.61-2.77c1.56,0,2.39,1.17,2.39,2.64,0,.46-.24.46-.5.46h-3.66c.14.96.96,1.75,2,1.75.24,0,1.05-.06,1.36-.79.08-.19.15-.27.39-.27.39,0,.41.27.41.35,0,.33-.59,1.44-2.2,1.44ZM184.21,422.7c-.79,0-1.6.62-1.76,1.69h3.32c-.05-.62-.31-1.69-1.56-1.69Z"/>
      <path class="cls-2" d="M193.18,427.47h-1.84c-.18,0-.5,0-.5-.36s.32-.36.5-.36h.51v-2.89c0-.71-.15-1.12-.87-1.12-.68,0-1.53.54-1.53,1.75v2.26h.51c.17,0,.5,0,.5.36s-.33.36-.5.36h-1.84c-.17,0-.5,0-.5-.36s.33-.36.5-.36h.51v-3.94h-.51c-.17,0-.5,0-.5-.36s.33-.36.5-.36h.82c.5,0,.5.17.5.64.21-.24.76-.71,1.61-.71,1.02,0,1.6.57,1.6,1.8v2.94h.51c.17,0,.5,0,.5.36s-.33.36-.5.36Z"/>
      <path class="cls-2" d="M203.8,427.55c-.7,0-1.16-.36-1.46-.7,0,.36,0,.62-.4.62s-.41-.29-.41-.51v-6.4h-.51c-.17,0-.5,0-.5-.36s.33-.36.5-.36h.82c.43,0,.5.12.5.51v2.34c.11-.12.69-.67,1.6-.67,1.3,0,2.35,1.22,2.35,2.76s-1.16,2.77-2.49,2.77ZM203.85,422.73c-.81,0-1.51.7-1.51,1.41v.99c0,.62.46,1.69,1.4,1.69.89,0,1.74-.85,1.74-2.05,0-1.12-.72-2.04-1.62-2.04Z"/>
      <path class="cls-2" d="M212.38,422.81h-.33l-1.96,5.8c-.04.1-.58,1.71-1.79,1.71-.62,0-1.03-.5-1.03-.97,0-.29.19-.5.5-.5.29,0,.49.2.49.49,0,.14-.04.21-.05.25.6.06.91-.53.99-.65.19-.35.51-1.46.51-1.46,0,0,0-.04-.05-.16l-1.75-4.5h-.34c-.18,0-.51,0-.51-.36s.34-.36.51-.36h1.37c.17,0,.51,0,.51.36s-.34.36-.51.36h-.29l1.16,3.07c.12.34.17.47.24.75h.01c.17-.71.89-2.8,1.24-3.82h-.31c-.17,0-.51,0-.51-.36s.34-.36.51-.36h1.38c.17,0,.51,0,.51.36s-.34.36-.51.36Z"/>
    </g>
    <g>
      <path class="cls-2" d="M158.37,435.89h-.23l-1.84,3.86v2.32h.28c.17,0,.5,0,.5.36s-.31.36-.5.36h-1.36c-.19,0-.5,0-.5-.36s.33-.36.5-.36h.27v-2.32l-1.85-3.86h-.22c-.17,0-.51,0-.51-.36s.34-.36.51-.36h1.17c.17,0,.51,0,.51.36s-.33.36-.56.36c.44.9,1.17,2.41,1.35,3.05.09-.3.33-.85.64-1.54l.71-1.51c-.24,0-.56,0-.56-.36s.34-.36.51-.36h1.17c.16,0,.51,0,.51.36s-.35.36-.51.36Z"/>
      <path class="cls-2" d="M161.73,442.88c-1.54,0-2.8-1.22-2.8-2.8s1.16-2.77,2.61-2.77c1.56,0,2.39,1.17,2.39,2.64,0,.46-.24.46-.5.46h-3.66c.14.96.96,1.75,2,1.75.24,0,1.05-.06,1.36-.79.08-.19.15-.27.39-.27.39,0,.41.27.41.35,0,.33-.59,1.44-2.2,1.44ZM161.54,438.03c-.79,0-1.6.62-1.76,1.69h3.32c-.05-.62-.31-1.69-1.56-1.69Z"/>
      <path class="cls-2" d="M170.52,442.81h-1.84c-.18,0-.5,0-.5-.36s.32-.36.5-.36h.51v-2.89c0-.71-.15-1.12-.87-1.12-.68,0-1.53.54-1.53,1.75v2.26h.51c.17,0,.5,0,.5.36s-.33.36-.5.36h-1.84c-.17,0-.5,0-.5-.36s.33-.36.5-.36h.51v-3.94h-.51c-.17,0-.5,0-.5-.36s.33-.36.5-.36h.82c.5,0,.5.17.5.64.21-.24.76-.71,1.61-.71,1.02,0,1.6.57,1.6,1.8v2.94h.51c.17,0,.5,0,.5.36s-.33.36-.5.36Z"/>
      <path class="cls-2" d="M177.16,442.81c-.47,0-1.1-.03-1.35-.44-.65.45-1.42.51-1.82.51-1.16,0-1.95-.75-1.95-1.64s.8-1.3,1.42-1.51c.78-.25,1.5-.3,2.24-.33,0-.36,0-.71-.45-1.06-.41-.31-.84-.31-1.12-.31-.15,0-.31,0-.46.01-.26.03-.27.04-.27.1-.01.52-.42.55-.5.55-.28,0-.51-.19-.51-.53,0-.86,1.21-.86,1.74-.86,1.69,0,2.4,1,2.4,1.95v2.72c.17.08.42.1.75.1.17,0,.5,0,.5.36s-.3.36-.6.36ZM175.69,440.08c-1.51,0-2.85.42-2.85,1.16,0,.51.54.91,1.28.91.04,0,.62,0,1.06-.21.51-.24.51-.5.51-.79v-1.08Z"/>
      <path class="cls-2" d="M189.89,442.81h-1.36c-.17,0-.51,0-.51-.36s.34-.36.51-.36h.27v-2.89h-2.65v2.89h.28c.17,0,.51,0,.51.36s-.34.36-.51.36h-1.36c-.19,0-.5,0-.5-.36s.33-.36.5-.36h.28v-6.19h-.28c-.17,0-.5,0-.5-.36s.31-.36.5-.36h1.36c.17,0,.51,0,.51.36s-.34.36-.51.36h-.28v2.57h2.65v-2.57h-.27c-.17,0-.51,0-.51-.36s.34-.36.51-.36h1.36c.19,0,.5,0,.5.36s-.32.36-.5.36h-.28v6.19h.28c.17,0,.5,0,.5.36s-.31.36-.5.36Z"/>
      <path class="cls-2" d="M193.78,442.88c-1.34,0-2.49-1.2-2.49-2.77s1.14-2.8,2.49-2.8,2.49,1.24,2.49,2.8-1.15,2.77-2.49,2.77ZM193.78,438.03c-.88,0-1.67.82-1.67,1.99s.77,2.14,1.67,2.14,1.67-.94,1.67-2.14-.8-1.99-1.67-1.99Z"/>
      <path class="cls-2" d="M202.74,442.81h-1.84c-.18,0-.5,0-.5-.36s.32-.36.5-.36h.51v-2.89c0-.71-.15-1.12-.87-1.12-.68,0-1.53.54-1.53,1.75v2.26h.51c.17,0,.5,0,.5.36s-.33.36-.5.36h-1.84c-.17,0-.5,0-.5-.36s.33-.36.5-.36h.51v-3.94h-.51c-.17,0-.5,0-.5-.36s.33-.36.5-.36h.82c.5,0,.5.17.5.64.21-.24.76-.71,1.61-.71,1.02,0,1.6.57,1.6,1.8v2.94h.51c.17,0,.5,0,.5.36s-.33.36-.5.36Z"/>
      <path class="cls-2" d="M209.49,438.39s-.38-.01-.45-.4c-.19.01-.49.05-.81.23.26.41.34.8.34,1.11,0,1.08-.88,1.99-2.01,1.99-.45,0-.86-.16-1.11-.34-.05.1-.09.15-.09.39,0,.67.58.67.72.67h1.06c.41,0,2.62,0,2.62,1.8,0,1.05-1.26,1.82-2.85,1.82s-2.85-.79-2.85-1.82c0-.49.25-1.16.94-1.54-.1-.11-.31-.46-.31-.9,0-.15.04-.53.27-.88-.35-.45-.41-.92-.41-1.2,0-1.07.88-1.99,2.01-1.99.35,0,.78.1,1.19.39.53-.41,1.09-.46,1.31-.46.7,0,.89.41.89.65,0,.38-.31.48-.46.48ZM206.58,442.74c-.86,0-.99,0-1.27.19-.46.29-.52.72-.52.91,0,.58.91,1.12,2.14,1.12s2.14-.55,2.14-1.12c0-1.1-1.38-1.1-2.47-1.1ZM206.56,438.04c-.61,0-1.19.55-1.19,1.29s.56,1.29,1.19,1.29c.66,0,1.2-.58,1.2-1.29s-.54-1.29-1.2-1.29Z"/>
    </g>
    <g>
      <path class="cls-2" d="M144.67,167.05h-3.49c-.14,0-.41,0-.41-.29,0-.12.03-.15.14-.24l2.2-1.91c.54-.47,1.13-1.07,1.13-1.85,0-.87-.75-1.36-1.6-1.36-.58,0-1.04.35-1.18.88.05.04.12.1.12.29,0,.27-.22.41-.4.41-.06,0-.41-.03-.41-.45,0-.84.77-1.71,1.93-1.71,1.25,0,2.19.8,2.19,1.94s-1.01,1.97-1.15,2.09l-1.91,1.62h2.41c0-.24,0-.45.33-.45s.32.23.32.41v.21c0,.15,0,.35-.22.41Z"/>
      <path class="cls-2" d="M148.07,167.17c-1.08,0-2.07-1.32-2.07-3.18s.98-3.17,2.07-3.17,2.07,1.32,2.07,3.18-.98,3.17-2.07,3.17ZM148.07,161.41c-.73,0-1.42,1-1.42,2.49s.63,2.7,1.42,2.7,1.42-1.22,1.42-2.7-.69-2.49-1.42-2.49Z"/>
      <path class="cls-2" d="M155.11,167.05h-3.49c-.14,0-.41,0-.41-.29,0-.12.03-.15.14-.24l2.2-1.91c.54-.47,1.13-1.07,1.13-1.85,0-.87-.75-1.36-1.6-1.36-.58,0-1.04.35-1.18.88.05.04.12.1.12.29,0,.27-.22.41-.4.41-.06,0-.41-.03-.41-.45,0-.84.77-1.71,1.93-1.71,1.25,0,2.19.8,2.19,1.94s-1.01,1.97-1.15,2.09l-1.91,1.62h2.41c0-.24,0-.45.33-.45s.32.23.32.41v.21c0,.15,0,.35-.22.41Z"/>
      <path class="cls-2" d="M160.19,165.37h-.75v1.1h.6c.14,0,.4,0,.4.29s-.26.29-.4.29h-1.76c-.14,0-.4,0-.4-.29s.26-.29.4-.29h.6v-1.1h-2.45c-.27,0-.4-.04-.4-.39,0-.18,0-.2.09-.33l2.27-3.65c.12-.19.17-.2.41-.2h.23c.34,0,.41.08.41.41v3.58h.75c.14,0,.4,0,.4.29s-.26.29-.4.29ZM158.88,161.29l-2.18,3.5h2.18v-3.5Z"/>
    </g>
    <g>
      <path class="cls-2" d="M202.31,167.05h-2.41c-.14,0-.41,0-.41-.29s.27-.29.41-.29h.88v-4.29s-.46.44-1.02.44c-.22,0-.32-.12-.32-.29,0-.26.21-.28.36-.29.53-.04.86-.57,1.05-1,.06-.13.12-.22.29-.22.29,0,.29.26.29.41v5.24h.88c.14,0,.41,0,.41.29s-.27.29-.41.29Z"/>
      <path class="cls-2" d="M207.93,167.05h-3.49c-.14,0-.41,0-.41-.29,0-.12.03-.15.14-.24l2.2-1.91c.54-.47,1.13-1.07,1.13-1.85,0-.87-.75-1.36-1.6-1.36-.58,0-1.04.35-1.18.88.05.04.12.1.12.29,0,.27-.22.41-.4.41-.06,0-.41-.03-.41-.45,0-.84.77-1.71,1.93-1.71,1.25,0,2.19.8,2.19,1.94s-1.01,1.97-1.15,2.09l-1.91,1.62h2.41c0-.24,0-.45.33-.45s.32.23.32.41v.21c0,.15,0,.35-.22.41Z"/>
      <path class="cls-2" d="M210.64,167.05c-.3,0-.56-.26-.56-.56,0-.32.25-.57.57-.57.29,0,.56.24.56.57,0,.29-.24.56-.57.56Z"/>
      <path class="cls-2" d="M216.26,167.05h-2.41c-.14,0-.41,0-.41-.29s.27-.29.41-.29h.88v-4.29s-.46.44-1.02.44c-.22,0-.32-.12-.32-.29,0-.26.21-.28.36-.29.53-.04.86-.57,1.05-1,.06-.13.12-.22.29-.22.29,0,.29.26.29.41v5.24h.88c.14,0,.41,0,.41.29s-.27.29-.41.29Z"/>
      <path class="cls-2" d="M219.47,167.17c-1.06,0-1.42-.5-1.42-1,0-.23.15-.42.41-.42s.4.21.4.4c0,.09-.03.18-.08.24.18.17.46.2.7.2.94,0,1.73-.99,1.83-2.32-.4.44-.96.65-1.51.65-1.04,0-1.91-.87-1.91-2.05s.98-2.05,2.07-2.05c.86,0,2.01.61,2.01,3.12,0,1.94-1.17,3.23-2.5,3.23ZM221.16,162.56c-.09-.29-.37-1.16-1.2-1.16-.73,0-1.42.59-1.42,1.47,0,.79.55,1.46,1.33,1.46s1.36-.56,1.36-1.17c0-.3-.06-.56-.07-.6Z"/>
    </g>
  </g>
</svg>